<?xml version="1.0" encoding="UTF-8" standalone="no"?>
<!-- Created with Inkscape (http://www.inkscape.org/) -->

<svg
   xmlns:dc="http://purl.org/dc/elements/1.1/"
   xmlns:cc="http://creativecommons.org/ns#"
   xmlns:rdf="http://www.w3.org/1999/02/22-rdf-syntax-ns#"
   xmlns:svg="http://www.w3.org/2000/svg"
   xmlns="http://www.w3.org/2000/svg"
   xmlns:sodipodi="http://sodipodi.sourceforge.net/DTD/sodipodi-0.dtd"
   xmlns:inkscape="http://www.inkscape.org/namespaces/inkscape"
   width="100mm"
   height="35mm"
   viewBox="0 0 354.33071 124.01575"
   id="svg2"
   version="1.1"
   inkscape:version="0.91 r13725"
   sodipodi:docname="logo.svg">
  <defs
     id="defs4" />
  <sodipodi:namedview
     id="base"
     pagecolor="#ffffff"
     bordercolor="#666666"
     borderopacity="1.0"
     inkscape:pageopacity="0.0"
     inkscape:pageshadow="2"
     inkscape:zoom="1.979899"
     inkscape:cx="163.52557"
     inkscape:cy="126.74291"
     inkscape:document-units="px"
     inkscape:current-layer="layer1"
     showgrid="false"
     inkscape:window-width="1235"
     inkscape:window-height="755"
     inkscape:window-x="45"
     inkscape:window-y="1"
     inkscape:window-maximized="1" />
  <metadata
     id="metadata7">
    <rdf:RDF>
      <cc:Work
         rdf:about="">
        <dc:format>image/svg+xml</dc:format>
        <dc:type
           rdf:resource="http://purl.org/dc/dcmitype/StillImage" />
        <dc:title></dc:title>
      </cc:Work>
    </rdf:RDF>
  </metadata>
  <g
     inkscape:label="Livello 1"
     inkscape:groupmode="layer"
     id="layer1"
     transform="translate(0,-928.34646)">
    <g
       id="g4209"
       transform="translate(-0.5834116,2.9423821)">
      <g
         style="font-style:normal;font-weight:normal;font-size:68.20236206px;line-height:125%;font-family:sans-serif;letter-spacing:0px;word-spacing:0px;fill:#0060ff;fill-opacity:1;stroke:none;stroke-width:1px;stroke-linecap:butt;stroke-linejoin:miter;stroke-opacity:1"
         id="text4136">
        <path
           d="m 32.999049,999.124 q 0,2.8645 1.909666,4.5014 1.909666,1.5686 4.023939,1.5686 2.182476,0 4.02394,-1.2276 1.909666,-1.2959 3.069106,-1.2959 2.046071,0 4.978773,3.6147 1.568654,1.9779 1.568654,3.5466 0,2.5917 -3.75113,4.8423 -3.887535,2.7281 -9.548331,2.7281 -6.342819,0 -12.208223,-4.5695 -2.796296,-2.1825 -4.569558,-5.7972 -1.773261,-3.683 -1.773261,-8.04791 0,-4.43315 1.773261,-7.97967 1.773262,-3.61473 4.569558,-5.7972 5.660797,-4.50136 12.071819,-4.50136 2.591689,0 5.046974,0.75023 2.455285,0.68202 3.614726,1.36404 l 1.091237,0.68203 q 1.227643,0.81842 1.909666,1.29584 1.773262,1.36405 1.773262,3.13731 0,1.70506 -1.43225,3.88753 -2.455285,3.75113 -4.705963,3.75113 -1.295845,0 -3.682927,-1.50045 -1.227643,-1.15944 -3.546523,-1.15944 -2.250678,0 -4.228547,1.63686 -1.977868,1.63686 -1.977868,4.56956 z"
           style="font-style:normal;font-variant:normal;font-weight:normal;font-stretch:normal;font-family:'Fredoka One';-inkscape-font-specification:'Fredoka One';fill:#0060ff;fill-opacity:1"
           id="path4235" />
        <path
           d="m 76.561178,981.25498 q 6.820236,0 11.321592,5.18338 4.569558,5.18338 4.569558,12.68564 l 0,12.0036 q 0,1.5687 -0.136405,2.3871 -0.0682,0.7502 -0.613821,1.7733 -0.886631,1.7732 -5.251582,1.7732 -4.160344,0 -5.183379,-1.7732 -0.545619,-1.0231 -0.682024,-1.8415 -0.0682,-0.8184 -0.0682,-2.4553 l 0,-11.93541 q 0,-2.79629 -1.568655,-4.36495 -1.568654,-1.56865 -4.023939,-1.56865 -2.387083,0 -4.228546,1.50045 -1.841464,1.43225 -2.114274,3.27371 l 0,13.23125 q 0,1.5687 -0.136404,2.3871 -0.0682,0.7502 -0.613822,1.7733 -0.88663,1.7732 -5.251581,1.7732 -4.296749,0 -5.251582,-1.8414 -0.477417,-1.0231 -0.613822,-1.7733 -0.0682,-0.7502 -0.0682,-2.3871 l 0,-40.785 q 0,-1.56866 0.0682,-2.31888 0.136405,-0.81843 0.613822,-1.77326 0.954833,-1.84147 5.319784,-1.84147 4.296749,0 5.183379,1.84147 0.545619,1.02303 0.613822,1.84146 0.136404,0.75023 0.136404,2.31888 l 0,15.07272 q 3.410118,-4.16034 7.979677,-4.16034 z"
           style="font-style:normal;font-variant:normal;font-weight:normal;font-stretch:normal;font-family:'Fredoka One';-inkscape-font-specification:'Fredoka One';fill:#0060ff;fill-opacity:1"
           id="path4237" />
        <path
           d="m 132.45407,994.82725 q 0,4.16034 -2.11427,6.20645 -2.04607,1.9778 -4.56956,1.9778 l -16.16396,0 q 0,1.9097 2.25068,3.2055 2.25068,1.2959 4.50136,1.2959 3.95573,0 6.20641,-0.8184 l 0.75023,-0.2729 q 1.63685,-0.7502 2.72809,-0.7502 2.18248,0 3.75113,3.0691 0.88663,1.8415 0.88663,3.1373 0,6.07 -14.5271,6.07 -5.04698,0 -9.00271,-1.705 -3.88754,-1.7733 -6.07001,-4.6378 -4.296751,-5.5244 -4.296751,-12.3446 0,-8.5935 5.524391,-13.70867 5.59259,-5.18338 13.91328,-5.18338 9.48013,0 13.91328,6.68383 2.31888,3.54652 2.31888,7.77507 z m -14.39069,1.97787 q 2.59169,0 2.59169,-2.18248 0,-1.56865 -1.22765,-2.52349 -1.15944,-0.95483 -3.41012,-0.95483 -2.18247,0 -4.36495,1.84146 -2.18247,1.77327 -2.18247,3.81934 l 8.5935,0 z"
           style="font-style:normal;font-variant:normal;font-weight:normal;font-stretch:normal;font-family:'Fredoka One';-inkscape-font-specification:'Fredoka One';fill:#0060ff;fill-opacity:1"
           id="path4239" />
        <path
           d="m 148.22374,999.124 q 0,2.8645 1.90967,4.5014 1.90966,1.5686 4.02394,1.5686 2.18247,0 4.02394,-1.2276 1.90966,-1.2959 3.0691,-1.2959 2.04607,0 4.97878,3.6147 1.56865,1.9779 1.56865,3.5466 0,2.5917 -3.75113,4.8423 -3.88753,2.7281 -9.54833,2.7281 -6.34282,0 -12.20822,-4.5695 -2.7963,-2.1825 -4.56956,-5.7972 -1.77326,-3.683 -1.77326,-8.04791 0,-4.43315 1.77326,-7.97967 1.77326,-3.61473 4.56956,-5.7972 5.66079,-4.50136 12.07181,-4.50136 2.59169,0 5.04698,0.75023 2.45528,0.68202 3.61472,1.36404 l 1.09124,0.68203 q 1.22765,0.81842 1.90967,1.29584 1.77326,1.36405 1.77326,3.13731 0,1.70506 -1.43225,3.88753 -2.45528,3.75113 -4.70596,3.75113 -1.29585,0 -3.68293,-1.50045 -1.22764,-1.15944 -3.54652,-1.15944 -2.25068,0 -4.22855,1.63686 -1.97787,1.63686 -1.97787,4.56956 z"
           style="font-style:normal;font-variant:normal;font-weight:normal;font-stretch:normal;font-family:'Fredoka One';-inkscape-font-specification:'Fredoka One';fill:#0060ff;fill-opacity:1"
           id="path4241" />
        <path
           d="m 193.41314,999.05579 9.07092,7.50231 q 1.70505,1.4322 2.11427,2.1824 0.47742,0.7503 0.47742,1.4323 0,1.6368 -2.11428,4.4331 -2.31888,2.8645 -4.09214,2.8645 -1.50045,0 -4.16034,-1.9778 l -0.68203,-0.4775 q -1.56865,-1.2958 -4.84237,-4.5013 -3.27371,-3.2737 -4.97877,-4.6378 l 0,5.2516 q 0,1.5687 -0.1364,2.3871 -0.0682,0.7502 -0.61382,1.7733 -0.88663,1.7732 -5.25159,1.7732 -4.29674,0 -5.25158,-1.8414 -0.47741,-1.0231 -0.61382,-1.7733 -0.0682,-0.8184 -0.0682,-2.3871 l 0,-40.8532 q 0,-1.56866 0.0682,-2.31888 0.13641,-0.81843 0.61382,-1.84147 0.95484,-1.84146 5.31979,-1.84146 3.27371,0 4.63776,1.15944 1.15944,0.95483 1.22764,3.0009 0.0682,0.61382 0.0682,1.90967 l 0,21.62015 q 1.22764,-1.02304 3.68293,-3.47832 2.52349,-2.45529 3.75113,-3.47832 l 0.81843,-0.54562 q 2.38708,-1.84147 4.09214,-1.84147 1.70506,0 3.88753,2.7963 2.25068,2.72809 2.25068,4.29675 0,1.56865 -2.52348,3.68293 l -6.75204,5.72899 z"
           style="font-style:normal;font-variant:normal;font-weight:normal;font-stretch:normal;font-family:'Fredoka One';-inkscape-font-specification:'Fredoka One';fill:#0060ff;fill-opacity:1"
           id="path4243" />
        <path
           d="m 228.47981,981.18678 q 6.07001,0 11.11698,5.38798 5.11518,5.38799 5.11518,12.54924 0,7.093 -5.04697,12.481 -5.04698,5.3198 -10.84418,5.3198 -5.7972,0 -8.25249,-3.2737 -0.54561,3.3419 -5.8654,3.3419 -4.29675,0 -5.25158,-1.8414 -0.47742,-1.0231 -0.61382,-1.7733 -0.0682,-0.8184 -0.0682,-2.3871 l 0,-40.7168 q 0,-1.56866 0.0682,-2.31888 0.1364,-0.81843 0.61382,-1.77326 0.95483,-1.84147 5.31978,-1.84147 4.29675,0 5.18338,1.84147 0.54562,1.02303 0.61382,1.84146 0.13641,0.75023 0.13641,2.31888 l 0,14.18609 q 2.72809,-3.34191 7.77507,-3.34191 z m -6.00181,22.02932 q 1.70506,1.8415 4.22855,1.8415 2.52348,0 4.29675,-1.8415 1.77326,-1.8414 1.77326,-4.0921 0,-2.25068 -1.63686,-4.09214 -1.63686,-1.90967 -4.36495,-1.90967 -2.7281,0 -4.36495,1.90967 -1.56866,1.90966 -1.56866,4.16034 0,2.1825 1.63686,4.0239 z"
           style="font-style:normal;font-variant:normal;font-weight:normal;font-stretch:normal;font-family:'Fredoka One';-inkscape-font-specification:'Fredoka One';fill:#0060ff;fill-opacity:1"
           id="path4245" />
        <path
           d="m 248.10823,999.124 q 0,-8.18429 5.729,-13.50407 5.729,-5.31978 13.09485,-5.31978 7.36586,0 13.02665,5.31978 5.6608,5.25158 5.6608,13.43586 0,5.66081 -2.9327,10.09391 -2.93271,4.365 -7.16125,6.4793 -4.16035,2.046 -8.6617,2.046 -4.50136,0 -8.7299,-2.1824 -4.22855,-2.2507 -7.16125,-6.5475 -2.8645,-4.3649 -2.8645,-9.8211 z m 14.25429,4.9106 q 2.18248,1.6368 4.43316,1.6368 2.25067,0 4.50135,-1.705 2.25068,-1.7051 2.25068,-5.04701 0,-3.34192 -2.11427,-4.97877 -2.11428,-1.63686 -4.56956,-1.63686 -2.45529,0 -4.56956,1.70506 -2.11427,1.70506 -2.11427,5.04697 0,3.27371 2.18247,4.97881 z"
           style="font-style:normal;font-variant:normal;font-weight:normal;font-stretch:normal;font-family:'Fredoka One';-inkscape-font-specification:'Fredoka One';fill:#0060ff;fill-opacity:1"
           id="path4247" />
        <path
           d="m 313.58782,999.05579 7.57047,7.63871 q 2.45528,2.4552 2.45528,4.2285 0,1.7051 -2.45528,4.1603 -2.45529,2.3871 -4.16035,2.3871 -1.70506,0 -4.16034,-2.4553 l -7.50226,-7.5704 -7.57046,7.5704 q -2.45529,2.4553 -4.16035,2.4553 -1.63685,0 -4.16034,-2.3871 -2.45529,-2.4552 -2.45529,-4.1603 0,-1.7733 2.45529,-4.2285 l 7.57046,-7.63871 -7.57046,-7.63866 q -2.45529,-2.45528 -2.45529,-4.16034 0,-1.77327 2.45529,-4.22855 2.52349,-2.45529 4.16034,-2.45529 1.70506,0 4.16035,2.45529 l 7.57046,7.63866 7.50226,-7.63866 q 2.45528,-2.45529 4.16034,-2.45529 1.70506,0 4.16035,2.45529 2.45528,2.45528 2.45528,4.22855 0,1.70506 -2.45528,4.16034 l -7.57047,7.63866 z"
           style="font-style:normal;font-variant:normal;font-weight:normal;font-stretch:normal;font-family:'Fredoka One';-inkscape-font-specification:'Fredoka One';fill:#0060ff;fill-opacity:1"
           id="path4249" />
      </g>
      <g
         style="font-style:normal;font-weight:normal;font-size:27.11831284px;line-height:125%;font-family:sans-serif;letter-spacing:0px;word-spacing:0px;fill:#48e7e4;fill-opacity:1;stroke:none;stroke-width:1px;stroke-linecap:butt;stroke-linejoin:miter;stroke-opacity:1"
         id="text4205">
        <path
           d="m 303.09455,962.10989 3.8508,0 q -0.0271,-1.38303 -0.54236,-2.38641 -0.48813,-1.00338 -1.35592,-1.6271 -0.84067,-0.62372 -1.97964,-0.92202 -1.13897,-0.29831 -2.41353,-0.29831 -1.89828,0 -3.36267,0.70508 -1.46439,0.67796 -2.49488,1.89828 -1.00338,1.19321 -1.54575,2.79319 -0.51524,1.57286 -0.51524,3.36267 0,3.09149 1.62709,4.55588 1.65422,1.43727 4.61012,1.43727 2.76607,0 4.55587,-1.41016 1.81693,-1.43727 2.68472,-4.06774 l -3.8508,0 q -0.16271,0.51525 -0.4339,1.00338 -0.24406,0.46101 -0.65084,0.81354 -0.37965,0.35254 -0.8949,0.56949 -0.48813,0.21695 -1.13897,0.21695 -0.73219,0 -1.24744,-0.24407 -0.48813,-0.24406 -0.81355,-0.65084 -0.32542,-0.40677 -0.46101,-0.94914 -0.13559,-0.56948 -0.13559,-1.19321 0,-0.8949 0.18982,-1.9254 0.21695,-1.05761 0.67796,-1.95251 0.46101,-0.89491 1.22033,-1.46439 0.75931,-0.59661 1.84404,-0.59661 1.30168,0 1.9254,0.54237 0.65084,0.54237 0.65084,1.78981 z"
           style="font-style:italic;font-variant:normal;font-weight:bold;font-stretch:normal;font-family:'Helvetica Neue';-inkscape-font-specification:'Helvetica Neue Bold Italic';fill:#48e7e4;fill-opacity:1"
           id="path4252" />
        <path
           d="m 317.10497,961.35058 3.57962,0 q 0.0271,-1.35592 -0.43389,-2.22371 -0.46101,-0.86778 -1.27456,-1.35591 -0.78643,-0.51525 -1.84405,-0.70508 -1.05761,-0.18983 -2.19658,-0.18983 -1.00338,0 -2.11523,0.24407 -1.08473,0.21695 -2.00676,0.75931 -0.92202,0.51525 -1.51862,1.35592 -0.56949,0.84067 -0.56949,2.08811 0,0.84067 0.18983,1.41015 0.21695,0.56948 0.59661,0.97626 0.40677,0.40677 0.94914,0.67796 0.56948,0.27118 1.30168,0.51525 l 2.95589,0.94914 q 0.62372,0.21694 1.00338,0.51524 0.37966,0.29831 0.37966,1.0305 0,0.48813 -0.21695,0.81355 -0.21695,0.2983 -0.56949,0.51525 -0.35253,0.18983 -0.78643,0.27118 -0.43389,0.0814 -0.86778,0.0814 -0.48813,0 -1.00338,-0.10848 -0.48813,-0.13559 -0.8949,-0.35254 -0.37966,-0.24406 -0.62373,-0.5966 -0.24406,-0.35254 -0.24406,-0.84067 l 0,-0.46101 -3.5525,0 0,0.56949 q 0,1.24744 0.54237,2.08811 0.54236,0.81355 1.38303,1.32879 0.86779,0.48813 1.9254,0.70508 1.05762,0.21695 2.08811,0.21695 1.22033,0 2.41353,-0.24407 1.19321,-0.24406 2.14235,-0.81355 0.94914,-0.56948 1.51862,-1.46439 0.59661,-0.92202 0.59661,-2.2237 0,-0.86778 -0.29831,-1.51862 -0.27118,-0.65084 -0.78643,-1.11185 -0.48813,-0.48813 -1.16608,-0.81355 -0.65084,-0.32542 -1.43727,-0.56949 l -1.9254,-0.62372 q -0.97626,-0.2983 -1.38304,-0.62372 -0.37965,-0.32542 -0.37965,-0.78643 0,-0.75931 0.65083,-1.05762 0.67796,-0.32542 1.70846,-0.32542 1.13897,0 1.6271,0.51525 0.51524,0.48813 0.54236,1.38304 z"
           style="font-style:italic;font-variant:normal;font-weight:bold;font-stretch:normal;font-family:'Helvetica Neue';-inkscape-font-specification:'Helvetica Neue Bold Italic';fill:#48e7e4;fill-opacity:1"
           id="path4254" />
        <path
           d="m 331.19378,961.35058 3.57962,0 q 0.0271,-1.35592 -0.43389,-2.22371 -0.46101,-0.86778 -1.27456,-1.35591 -0.78643,-0.51525 -1.84405,-0.70508 -1.05761,-0.18983 -2.19658,-0.18983 -1.00338,0 -2.11523,0.24407 -1.08473,0.21695 -2.00675,0.75931 -0.92203,0.51525 -1.51863,1.35592 -0.56948,0.84067 -0.56948,2.08811 0,0.84067 0.18982,1.41015 0.21695,0.56948 0.59661,0.97626 0.40677,0.40677 0.94914,0.67796 0.56948,0.27118 1.30168,0.51525 l 2.95589,0.94914 q 0.62372,0.21694 1.00338,0.51524 0.37966,0.29831 0.37966,1.0305 0,0.48813 -0.21695,0.81355 -0.21695,0.2983 -0.56948,0.51525 -0.35254,0.18983 -0.78644,0.27118 -0.43389,0.0814 -0.86778,0.0814 -0.48813,0 -1.00338,-0.10848 -0.48813,-0.13559 -0.8949,-0.35254 -0.37966,-0.24406 -0.62372,-0.5966 -0.24407,-0.35254 -0.24407,-0.84067 l 0,-0.46101 -3.5525,0 0,0.56949 q 0,1.24744 0.54237,2.08811 0.54236,0.81355 1.38303,1.32879 0.86779,0.48813 1.9254,0.70508 1.05762,0.21695 2.08811,0.21695 1.22033,0 2.41353,-0.24407 1.19321,-0.24406 2.14235,-0.81355 0.94914,-0.56948 1.51862,-1.46439 0.59661,-0.92202 0.59661,-2.2237 0,-0.86778 -0.2983,-1.51862 -0.27119,-0.65084 -0.78644,-1.11185 -0.48813,-0.48813 -1.16608,-0.81355 -0.65084,-0.32542 -1.43727,-0.56949 l -1.9254,-0.62372 q -0.97626,-0.2983 -1.38304,-0.62372 -0.37965,-0.32542 -0.37965,-0.78643 0,-0.75931 0.65084,-1.05762 0.67795,-0.32542 1.70845,-0.32542 1.13897,0 1.6271,0.51525 0.51525,0.48813 0.54236,1.38304 z"
           style="font-style:italic;font-variant:normal;font-weight:bold;font-stretch:normal;font-family:'Helvetica Neue';-inkscape-font-specification:'Helvetica Neue Bold Italic';fill:#48e7e4;fill-opacity:1"
           id="path4256" />
      </g>
    </g>
  </g>
</svg>
